<?xml version="1.0" encoding="utf-8"?>
<!-- Generator: Adobe Illustrator 26.0.1, SVG Export Plug-In . SVG Version: 6.00 Build 0)  -->
<svg version="1.1" id="Layer_1" xmlns="http://www.w3.org/2000/svg" xmlns:xlink="http://www.w3.org/1999/xlink" x="0px" y="0px"
	 viewBox="0 0 1080 1080" style="enable-background:new 0 0 1080 1080;" xml:space="preserve">
<style type="text/css">
	.st0{fill:url(#SVGID_1_);}
	.st1{fill:#145260;}
	.st2{fill:#FFFFFF;}
	.st3{fill:url(#SVGID_00000058586371102569842180000007246387456687794862_);}
</style>
<text transform="matrix(1 0 0 1 -750.8369 660.3623)" class="st2" style="font-family:'Montserrat-ExtraBold'; font-size:26.9992px; letter-spacing:1;"> Speed Global Trade</text>
<g>
	<g>
		
			<text transform="matrix(1 0 0 1 -668.3345 846.0166)" class="st2" style="font-family:'Montserrat-SemiBold'; font-size:29.0084px; letter-spacing:6;">YOUR TAGLINE &amp; SLOGAN</text>
	</g>
</g>
<g>
	<linearGradient id="SVGID_1_" gradientUnits="userSpaceOnUse" x1="234.6742" y1="547.5" x2="870.7902" y2="547.5">
		<stop  offset="0" style="stop-color:#A17A2C"/>
		<stop  offset="0.2279" style="stop-color:#D2A74A"/>
		<stop  offset="0.414" style="stop-color:#FBE68F"/>
		<stop  offset="0.586" style="stop-color:#E3BA66"/>
		<stop  offset="0.7721" style="stop-color:#FFD67A"/>
		<stop  offset="1" style="stop-color:#916E2B"/>
		<stop  offset="1" style="stop-color:#B38C3E"/>
	</linearGradient>
	<path class="st0" d="M870.79,465.45V347.7L552.74,111L234.67,347.7v242.78H365.8v91.81L552.73,821.4l186.93-139.11v-91.81h56.75
		v119.46L552.74,891.28L309.06,709.95v-65.42h-74.38v102.79L552.74,984l318.05-236.69V516.1H494.15v74.38h171.13v54.44
		l-112.55,83.76l-112.55-83.76v-54.44h0V516.1h0v-57.88l112.55-83.76l112.55,83.76v6.45h74.38v-43.81L552.73,281.74L365.8,420.85
		v95.24h-56.75V385.06l243.68-181.34l243.67,181.34v80.38H870.79z M552.74,187.82L296.3,378.65v150.2h82.26V427.26l174.17-129.61
		L726.9,427.26v24.65h-48.87v-0.1l-125.3-93.25l-125.3,93.25v199.52l125.3,93.25l125.3-93.25v-73.6H506.91v-48.87h351.12V740.9
		l-305.3,227.2L247.43,740.9v-83.63h48.87v59.07l256.44,190.83l256.43-190.84V577.72H726.9v98.16L552.73,805.49L378.56,675.88
		v-98.16H247.43V354.1l305.31-227.2l305.3,227.2v98.59h-48.87v-74.04L552.74,187.82z"/>
	<polygon class="st1" points="811.29,450.56 855.91,450.56 855.91,355.17 552.74,129.55 249.56,355.17 249.56,575.6 380.69,575.6 
		380.69,674.81 552.73,802.84 724.78,674.81 724.78,575.6 811.29,575.6 811.29,717.41 552.74,909.83 294.17,717.42 294.17,659.41 
		249.56,659.41 249.56,739.84 552.74,965.45 855.91,739.84 855.91,530.98 509.04,530.98 509.04,575.6 680.16,575.6 680.16,652.39 
		552.73,747.23 425.3,652.39 425.3,450.75 552.73,355.91 678.87,449.78 724.78,449.78 724.78,428.33 552.73,300.29 380.69,428.33 
		380.69,530.98 294.17,530.98 294.17,377.59 552.74,185.17 811.29,377.59 	"/>
</g>
<polygon class="st2" points="-172.07,426.56 -177.66,415.23 -183.26,426.56 -195.77,428.38 -186.71,437.21 -188.85,449.67 
	-177.66,443.78 -166.47,449.67 -168.61,437.21 -159.56,428.38 "/>
<polygon class="st2" points="-453.23,526.38 -465.74,524.56 -471.34,513.23 -476.93,524.56 -489.44,526.38 -480.39,535.21 
	-482.53,547.67 -471.34,541.78 -460.15,547.67 -462.29,535.21 "/>
<linearGradient id="SVGID_00000054983423129686707220000017235629932594770618_" gradientUnits="userSpaceOnUse" x1="-482" y1="529" x2="-342" y2="529">
	<stop  offset="0" style="stop-color:#A17A2C"/>
	<stop  offset="0.2279" style="stop-color:#D2A74A"/>
	<stop  offset="0.414" style="stop-color:#FBE68F"/>
	<stop  offset="0.586" style="stop-color:#E3BA66"/>
	<stop  offset="0.7721" style="stop-color:#FFD67A"/>
	<stop  offset="1" style="stop-color:#916E2B"/>
	<stop  offset="1" style="stop-color:#B38C3E"/>
</linearGradient>
<rect x="-482" y="449" style="fill:url(#SVGID_00000054983423129686707220000017235629932594770618_);" width="140" height="160"/>
</svg>
